<svg xmlns="http://www.w3.org/2000/svg" viewBox="0 0 24 24" fill="#25D366">
    <path d="M12.031 0C5.39 0 .013 5.385.013 12.03c0 2.124.553 4.195 1.604 6.014L.032 24l6.115-1.602c1.743.957 3.731 1.464 5.88 1.464 6.64 0 12.019-5.385 12.019-12.03S18.671 0 12.031 0zm0 21.84c-1.785 0-3.528-.48-5.06-1.386l-.36-.216-3.765.984.996-3.666-.24-.384a9.927 9.927 0 0 1-1.524-5.28C2.047 6.447 6.551 1.95 12.03 1.95c5.48 0 9.985 4.497 9.985 9.975 0 5.48-4.505 9.915-9.985 9.915zm5.482-7.485c-.3-.15-1.776-.876-2.052-.976-.276-.1-.476-.15-.676.15-.2.3-.775.976-.95 1.176-.176.2-.351.226-.651.076-1.724-.863-2.903-1.685-4.008-3.567-.2-.345.099-.323.682-1.487.075-.15.038-.285-.038-.435-.075-.15-.676-1.626-.926-2.226-.24-.585-.486-.505-.675-.515-.18-.01-.381-.01-.581-.01-.2 0-.526.075-.801.375-.275.3-1.051 1.026-1.051 2.503 0 1.476 1.076 2.902 1.226 3.102.15.2 2.114 3.226 5.122 4.526 2.274.981 3.003.882 3.528.736.685-.19 1.776-.726 2.026-1.426.25-.701.25-1.301.176-1.426-.075-.125-.276-.2-.576-.35z"/>
</svg>